<?xml version="1.0" encoding="utf-8"?>
<!-- Generator: Adobe Illustrator 25.4.1, SVG Export Plug-In . SVG Version: 6.00 Build 0)  -->
<svg version="1.1" id="Layer_1" xmlns="http://www.w3.org/2000/svg" xmlns:xlink="http://www.w3.org/1999/xlink" x="0px" y="0px"
	 viewBox="0 0 1672.3 678.1" style="enable-background:new 0 0 1672.3 678.1;" xml:space="preserve">
<style type="text/css">
	.st0{fill:#FFFFFF;}
	.st1{fill:#6EBE4C;}
</style>
<g>
	<g>
		<g id="LOGO_6_">
			<polygon class="st0" points="366.8,109.5 234,186.2 234,254.1 366.8,176.8 441.5,219.6 426.7,228.3 366.8,193.9 314.8,224 
				433.7,292.8 499.7,254.2 499.7,186.2 			"/>
			<polygon class="st1" points="366.8,416 499.7,339.5 499.7,271.5 366.8,348.7 292.1,305.9 307,297.3 366.8,331.7 418.9,301.6 
				299.9,232.7 234,271.3 234,339.5 			"/>
		</g>
		<g id="XMLID_6_">
			<g>
				<path class="st0" d="M633.5,211.4c12-17.5,29.8-26.3,53.5-26.3c21.5,0,38.9,7.5,52.3,22.4c13.3,14.7,20,33,20,54.7
					c0,21.7-6.7,39.9-20,54.7c-13.3,14.9-31.3,22.4-53.8,22.4c-22.5,0-39.8-8.9-52-26.6V396h-22.4V187.5h22.4V211.4z M684,205.4
					c-16.1,0-28.9,5.6-38.2,16.7c-9,10.6-13.4,23.9-13.4,40c0,16.1,4.5,29.5,13.4,40c9.4,11.2,22.1,16.7,38.2,16.7
					c15.9,0,28.9-5.6,38.8-16.7c9.4-10.6,14-23.9,14-40c0-16.1-4.7-29.5-14-40C712.9,211,699.9,205.4,684,205.4z"/>
				<path class="st0" d="M805.9,336.9V207.2h-33.5v-19.7h33.5V134h22.4v53.5h33.3v19.7h-33.3v129.7H805.9z"/>
				<path class="st0" d="M957.1,318.9c9.6,0,18-2.7,25.4-8.1c7.4-5.4,12.7-12.3,16.1-20.9h24.2c-4.6,14.7-12.9,26.6-25.1,35.6
					c-12.7,9.2-27.9,13.7-45.4,13.7c-21.9,0-39.7-7.5-53.5-22.4c-13.3-14.5-20-32.8-20-54.7c0-21.9,6.7-40.1,20-54.7
					c13.7-14.9,31.6-22.4,53.5-22.4c17.5,0,32.7,4.6,45.4,13.7c12.1,9,20.5,20.8,25.1,35.6h-24.2c-3.4-8.6-8.8-15.5-16.1-20.9
					c-7.4-5.4-15.8-8.1-25.4-8.1s-17.7,1.5-24.4,4.5c-6.7,3-12.3,7.1-16.9,12.3c-9.8,10.8-14.6,24.1-14.6,40
					c0,15.9,4.9,29.3,14.6,40C925.8,313.4,939.5,318.9,957.1,318.9z"/>
			</g>
		</g>
	</g>
	<g>
		<path class="st0" d="M258,530.3c-2.3-0.9-4.7-1.4-7.1-1.4h-17.5v41.2h17.5c2.4,0,4.8-0.5,7.1-1.4c2.3-0.9,4.3-2.3,6.1-4.1
			c3.8-3.9,5.8-9,5.8-15.1c0-6.1-2-11.2-5.8-15.1C262.3,532.6,260.3,531.2,258,530.3z M239.3,534.7h11.3c4,0,7.1,1.4,9.6,4.4
			c2.4,2.8,3.6,6.3,3.6,10.5s-1.2,7.7-3.6,10.5c-2.5,2.9-5.6,4.4-9.6,4.4h-11.3V534.7z"/>
		<rect x="286.7" y="528.9" class="st0" width="6" height="41.2"/>
		<path class="st0" d="M324,535.5c1.8-0.8,4.1-1.2,6.7-1.2c2.6,0,4.9,0.6,6.9,1.7c2,1.1,3.6,2.8,4.7,4.8l0.2,0.4h6.5l-0.5-1
			c-1.5-3.5-4-6.4-7.3-8.5c-1.6-1-3.4-1.8-5.3-2.4c-1.9-0.6-4.3-0.9-6.9-0.9c-2.7,0-5.3,0.6-7.7,1.7l0,0c-2.5,1.1-4.6,2.6-6.4,4.5
			c-3.7,4-5.5,9-5.5,14.9c0,6,1.8,11,5.4,14.9c1.7,1.9,3.9,3.4,6.4,4.5c2.5,1.1,5,1.7,7.5,1.7c2.5,0,4.5-0.2,6.1-0.6
			c3.4-1,6.3-2.8,8.5-5.4v5.5h5.6v-22.6h-20.2v5.6h14.5c-0.2,3.5-1.5,6.2-4,8.3c-2.6,2.2-5.7,3.3-9.2,3.3c-4.4,0-8.1-1.5-10.7-4.4
			c-2.5-2.8-3.8-6.4-3.8-10.8c0-4.4,1.3-8,3.9-10.8C320.7,537.3,322.2,536.3,324,535.5z"/>
		<rect x="366.6" y="528.9" class="st0" width="6" height="41.2"/>
		<polygon class="st0" points="387.9,534.7 401.8,534.7 401.8,570.2 407.8,570.2 407.8,534.7 421.6,534.7 421.6,528.9 387.9,528.9 
					"/>
		<path class="st0" d="M445.8,528.9l-17.5,41.2h6.6l4.9-11.5h18.7l4.9,11.5h6.6l-17.5-41.2H445.8z M456.1,553h-14l7-16.7L456.1,553z
			"/>
		<polygon class="st0" points="490.3,528.9 484.3,528.9 484.3,570.2 511.9,570.2 511.9,564.3 490.3,564.3 		"/>
		<polygon class="st0" points="547.2,534.7 561.1,534.7 561.1,570.2 567.1,570.2 567.1,534.7 581,534.7 581,528.9 547.2,528.9 		"/>
		<path class="st0" d="M623.6,552.9c4.4-1.9,6.6-5.6,6.6-10.8c0-4-1.3-7.3-3.9-9.6c-2.6-2.4-6-3.6-10.2-3.6h-19.8v41.2h6v-15.3h12.6
			l9.6,15.3h7.1l-10.6-16.3C621.9,553.6,622.7,553.3,623.6,552.9z M602.3,534.7h13.2c2.6,0,4.8,0.7,6.4,2c1.6,1.3,2.3,3.1,2.3,5.4
			c0,1.4-0.3,2.6-0.8,3.5c-1.5,2.4-4.1,3.6-8.1,3.6h-13V534.7z"/>
		<path class="st0" d="M660,528.9l-17.5,41.2h6.6l4.9-11.5h18.7l4.9,11.5h6.6l-17.5-41.2H660z M670.3,553h-14l7-16.7L670.3,553z"/>
		<polygon class="st0" points="728.2,560.8 704.8,528.9 698.4,528.9 698.4,570.2 704.4,570.2 704.4,538.1 727.9,570.2 734.2,570.2 
			734.2,528.9 728.2,528.9 		"/>
		<path class="st0" d="M780.4,550.4c-1.3-0.9-2.9-1.6-4.6-2.2c-1.7-0.5-3.4-1-5.1-1.5c-1.7-0.4-3.4-0.8-5-1.2
			c-1.6-0.4-3-0.8-4.3-1.3c-1.2-0.5-2.1-1.1-2.9-1.8c-0.6-0.6-0.9-1.3-0.9-2c0-0.8,0.1-1.6,0.4-2.3c0.2-0.7,0.7-1.3,1.3-1.9
			c0.7-0.6,1.7-1.1,3-1.5c1.3-0.4,2.9-0.7,4.9-0.7c1.9,0,3.6,0.2,4.9,0.6c3.6,1,5.5,2.9,5.8,5.9l0.1,0.7h6.1l0-0.8
			c-0.2-3.4-1.6-6.2-4.3-8.4c-2.9-2.4-7-3.7-12.2-3.7c-5.2,0-9.1,1.1-11.7,3.2c-2.7,2.2-4,5-4,8.5c0,2.5,0.8,4.5,2.2,6
			c1.4,1.4,3.2,2.6,5.3,3.4c2.1,0.8,4.3,1.5,6.7,2c2.3,0.5,4.5,1.1,6.5,1.7c1.9,0.6,3.6,1.3,4.8,2.2c1.1,0.8,1.7,1.8,1.7,3.2
			c0,4.2-3.4,6.3-10.4,6.3c-3.4,0-6.2-0.6-8.2-1.8c-2.3-1.3-3.4-3.2-3.6-5.6l0-0.7h-6.2l0.1,0.8c0.4,4,2,7.2,4.7,9.4
			c3,2.4,7.5,3.6,13.2,3.6c5.1,0,9.1-1,12-3.1c3-2.1,4.5-5.2,4.5-9.1C785,555,783.5,552.3,780.4,550.4z"/>
		<polygon class="st0" points="801.6,570.2 807.6,570.2 807.6,552.9 829.1,552.9 829.1,547 807.6,547 807.6,534.7 831.8,534.7 
			831.8,528.9 801.6,528.9 		"/>
		<path class="st0" d="M866.1,528.4c-6.1,0-11.2,2.1-15.1,6.2c-3.8,4-5.8,9-5.8,14.9s2,11,5.8,14.9c3.9,4.1,9,6.2,15.1,6.2
			c6.1,0,11.2-2.1,15.1-6.2c3.8-4,5.8-9,5.8-14.9s-2-11-5.8-14.9C877.3,530.5,872.2,528.4,866.1,528.4z M866.1,564.8
			c-4.5,0-8.2-1.5-10.9-4.4c-2.7-2.8-4-6.4-4-10.8s1.3-8,4-10.8c2.8-2.9,6.4-4.4,10.9-4.4c4.5,0,8.2,1.5,10.9,4.4
			c2.7,2.8,4,6.5,4,10.8s-1.3,8-4,10.8C874.3,563.3,870.6,564.8,866.1,564.8z"/>
		<path class="st0" d="M931.1,552.9c4.4-1.9,6.6-5.6,6.6-10.8c0-4-1.3-7.3-3.9-9.6c-2.6-2.4-6-3.6-10.2-3.6h-19.8v41.2h6v-15.3h12.6
			l9.6,15.3h7.1l-10.6-16.3C929.4,553.6,930.3,553.3,931.1,552.9z M909.8,534.7h13.2c2.6,0,4.8,0.7,6.4,2c1.6,1.3,2.3,3.1,2.3,5.4
			c0,1.4-0.3,2.6-0.8,3.5c-1.5,2.4-4.1,3.6-8.1,3.6h-13V534.7z"/>
		<polygon class="st0" points="975.3,547.3 961.5,528.9 955.1,528.9 955.1,570.2 961.1,570.2 961.1,538.7 975.3,556.6 989.3,538.7 
			989.3,570.2 995.3,570.2 995.3,528.9 988.9,528.9 		"/>
		<path class="st0" d="M1041.5,550.4c-1.3-0.9-2.9-1.6-4.6-2.2c-1.7-0.5-3.4-1-5.1-1.5c-1.7-0.4-3.4-0.8-5-1.2
			c-1.6-0.4-3-0.8-4.3-1.3c-1.2-0.5-2.1-1.1-2.9-1.8c-0.6-0.6-0.9-1.3-0.9-2c0-0.8,0.1-1.6,0.4-2.3c0.2-0.7,0.7-1.3,1.3-1.9
			c0.7-0.6,1.7-1.1,3-1.5c1.3-0.4,2.9-0.7,4.9-0.7c1.9,0,3.6,0.2,4.9,0.6c3.6,1,5.5,2.9,5.8,5.9l0.1,0.7h6.1l0-0.8
			c-0.2-3.4-1.6-6.2-4.3-8.4c-2.9-2.4-7-3.7-12.2-3.7c-5.2,0-9.1,1.1-11.7,3.2c-2.7,2.2-4,5-4,8.5c0,2.5,0.8,4.5,2.2,6
			c1.4,1.4,3.2,2.6,5.3,3.4c2.1,0.8,4.3,1.5,6.7,2c2.3,0.5,4.5,1.1,6.5,1.7c1.9,0.6,3.6,1.3,4.8,2.2c1.1,0.8,1.7,1.8,1.7,3.2
			c0,4.2-3.4,6.3-10.4,6.3c-3.4,0-6.2-0.6-8.2-1.8c-2.3-1.3-3.4-3.2-3.6-5.6l0-0.7h-6.2l0.1,0.8c0.4,4,2,7.2,4.7,9.4
			c3,2.4,7.5,3.6,13.2,3.6c5.1,0,9.1-1,12-3.1c3-2.1,4.5-5.2,4.5-9.1C1046.1,555,1044.5,552.3,1041.5,550.4z"/>
		<path class="st0" d="M1105.2,528.9h-18.6v41.2h6V556h12.6c4.4,0,7.9-1.2,10.5-3.7c2.6-2.4,3.9-5.8,3.9-9.9c0-4.1-1.3-7.4-3.9-9.9
			C1113.1,530.1,1109.6,528.9,1105.2,528.9z M1092.5,534.7h12.3c2.9,0,5.1,0.7,6.6,2.1c1.5,1.4,2.2,3.3,2.2,5.7
			c0,2.5-0.7,4.3-2.2,5.7c-1.4,1.4-3.7,2.1-6.6,2.1h-12.3V534.7z"/>
		<polygon class="st0" points="1163,546.6 1141.4,546.6 1141.4,528.9 1135.4,528.9 1135.4,570.2 1141.4,570.2 1141.4,552.4 
			1163,552.4 1163,570.2 1169,570.2 1169,528.9 1163,528.9 		"/>
		<polygon class="st0" points="1203.1,547.7 1190,528.9 1182.7,528.9 1200.1,553.9 1200.1,570.2 1206.1,570.2 1206.1,553.9 
			1223.4,528.9 1216.1,528.9 		"/>
		<path class="st0" d="M1263.4,550.4c-1.3-0.9-2.9-1.6-4.6-2.2c-1.7-0.5-3.4-1-5.1-1.5c-1.7-0.4-3.4-0.8-5-1.2
			c-1.6-0.4-3-0.8-4.3-1.3c-1.2-0.5-2.1-1.1-2.9-1.8c-0.6-0.6-0.9-1.3-0.9-2c0-0.8,0.1-1.6,0.4-2.3c0.2-0.7,0.7-1.3,1.3-1.9
			c0.7-0.6,1.7-1.1,3-1.5c1.3-0.4,2.9-0.7,4.9-0.7c1.9,0,3.6,0.2,4.9,0.6c3.6,1,5.5,2.9,5.8,5.9l0.1,0.7h6.1l0-0.8
			c-0.2-3.4-1.6-6.2-4.3-8.4c-2.9-2.4-7-3.7-12.2-3.7c-5.2,0-9.1,1.1-11.7,3.2c-2.7,2.2-4,5-4,8.5c0,2.5,0.8,4.5,2.2,6
			c1.4,1.4,3.2,2.6,5.3,3.4c2.1,0.8,4.3,1.5,6.7,2c2.3,0.5,4.5,1.1,6.5,1.7c1.9,0.6,3.6,1.3,4.8,2.2c1.1,0.8,1.7,1.8,1.7,3.2
			c0,4.2-3.4,6.3-10.4,6.3c-3.4,0-6.2-0.6-8.2-1.8c-2.3-1.3-3.4-3.2-3.6-5.6l0-0.7h-6.2l0.1,0.8c0.4,4,2,7.2,4.7,9.4
			c3,2.4,7.5,3.6,13.2,3.6c5.1,0,9.1-1,12-3.1c3-2.1,4.5-5.2,4.5-9.1C1268,555,1266.4,552.3,1263.4,550.4z"/>
		<rect x="1284.6" y="528.9" class="st0" width="6" height="41.2"/>
		<path class="st0" d="M1321.6,535.5c1.8-0.8,4.1-1.2,6.8-1.2c2.7,0,5,0.7,7.1,2c2,1.4,3.5,3.2,4.5,5.5l0.2,0.5h6.3l-0.4-1
			c-1.4-3.9-3.7-7-6.8-9.2c-3.4-2.4-7.4-3.6-11.9-3.6c-6,0-10.9,2.1-14.7,6.2c-3.5,3.9-5.3,8.9-5.3,14.9s1.8,11,5.3,14.9
			c3.7,4.1,8.7,6.2,14.7,6.2c4.5,0,8.5-1.2,11.9-3.6c3.2-2.2,5.5-5.4,6.8-9.2l0.4-1h-6.3l-0.2,0.5c-1,2.3-2.5,4.1-4.5,5.5
			c-2,1.3-4.4,2-7.1,2c-4.9,0-8.7-1.5-11.3-4.4c-2.5-2.8-3.7-6.4-3.7-10.8c0-4.4,1.2-8.1,3.7-10.9
			C1318.3,537.3,1319.8,536.3,1321.6,535.5z"/>
		<path class="st0" d="M1374.9,528.9l-17.5,41.2h6.6l4.9-11.5h18.7l4.9,11.5h6.6l-17.5-41.2H1374.9z M1385.2,553h-14l7-16.7
			L1385.2,553z"/>
		<polygon class="st0" points="1419.3,564.3 1419.3,528.9 1413.3,528.9 1413.3,570.2 1441,570.2 1441,564.3 		"/>
	</g>
</g>
</svg>
