<svg width="54" height="51" viewBox="0 0 54 51" fill="none" xmlns="http://www.w3.org/2000/svg">
<path d="M27 0L33.2864 19.3475H53.6296L37.1716 31.305L43.458 50.6525L27 38.695L10.542 50.6525L16.8284 31.305L0.370417 19.3475H20.7136L27 0Z" fill="white"/>
<path d="M27 0L33.2864 19.3475H53.6296L37.1716 31.305L43.458 50.6525L27 38.695L10.542 50.6525L16.8284 31.305L0.370417 19.3475H20.7136L27 0Z" fill="white"/>
<path d="M27 0L33.2864 19.3475H53.6296L37.1716 31.305L43.458 50.6525L27 38.695L10.542 50.6525L16.8284 31.305L0.370417 19.3475H20.7136L27 0Z" fill="white"/>
<path d="M27 0L33.2864 19.3475H53.6296L37.1716 31.305L43.458 50.6525L27 38.695L10.542 50.6525L16.8284 31.305L0.370417 19.3475H20.7136L27 0Z" fill="white"/>
</svg>
